<svg width="22" height="23" viewBox="0 0 22 23" fill="none" xmlns="http://www.w3.org/2000/svg">
<path d="M9.34767 20.1844C9.34765 20.0376 9.31536 19.8927 9.25309 19.7599C9.19082 19.627 9.10009 19.5095 8.98734 19.4156C8.87459 19.3218 8.74257 19.2538 8.60064 19.2167C8.45871 19.1795 8.31034 19.174 8.16605 19.2006C6.85644 19.4409 5.20295 19.477 4.76331 18.2422C4.37996 17.2858 3.74497 16.451 2.92566 15.8262C2.8672 15.7944 2.81149 15.7578 2.7591 15.7168C2.68739 15.5276 2.56003 15.3647 2.39381 15.2494C2.22759 15.1341 2.03033 15.0719 1.82805 15.071H1.82317C1.55866 15.0709 1.30489 15.1756 1.1174 15.3622C0.929906 15.5488 0.823967 15.802 0.822768 16.0665C0.818856 16.8823 1.63409 17.405 1.96483 17.5818C2.35483 17.9736 2.66826 18.4348 2.88903 18.9417C3.25343 19.9656 4.31245 21.5189 7.35664 21.3187C7.35764 21.3538 7.35859 21.3871 7.35908 21.4173L7.36347 21.685C7.36347 21.9503 7.46887 22.2048 7.65648 22.3924C7.8441 22.58 8.09855 22.6854 8.36388 22.6854C8.6292 22.6854 8.88365 22.58 9.07127 22.3924C9.25888 22.2048 9.36428 21.9503 9.36428 21.685L9.3594 21.3665C9.35451 21.1769 9.34767 20.9024 9.34767 20.1844ZM20.019 5.05228C20.0507 4.92723 20.082 4.78851 20.1093 4.63219C20.2711 3.51733 20.1301 2.37948 19.701 1.33787C19.6468 1.20208 19.5636 1.07977 19.4572 0.979529C19.3508 0.879285 19.2238 0.803527 19.085 0.757567C18.7288 0.637399 17.4139 0.400974 14.8992 2.00807C12.8089 1.51617 10.633 1.51617 8.54268 2.00807C6.03824 0.424513 4.7301 0.6394 4.37741 0.752725C4.23522 0.796823 4.1047 0.87218 3.99541 0.973272C3.88612 1.07436 3.80084 1.19863 3.74581 1.33696C3.30794 2.39857 3.16842 3.55963 3.34233 4.69475C3.36676 4.82273 3.39313 4.94095 3.42049 5.04938C2.59173 6.15326 2.15029 7.49973 2.16462 8.88002C2.16192 9.18798 2.1761 9.49585 2.20711 9.80226C2.54125 14.4066 5.54245 15.789 7.6336 16.2639C7.59013 16.3889 7.55057 16.5227 7.51539 16.6644C7.45271 16.9218 7.49466 17.1936 7.63204 17.4201C7.76942 17.6466 7.99103 17.8094 8.24826 17.8728C8.50549 17.9361 8.77736 17.8949 9.00424 17.7581C9.23112 17.6213 9.3945 17.4002 9.45856 17.1431C9.52221 16.8098 9.68537 16.5036 9.92652 16.2648C10.0723 16.1372 10.1779 15.9699 10.2304 15.7833C10.2829 15.5968 10.28 15.399 10.2222 15.214C10.1643 15.0291 10.0539 14.8649 9.9045 14.7415C9.75506 14.6181 9.57297 14.5408 9.3804 14.519C5.92492 14.1243 4.42479 12.7165 4.19912 9.61861C4.17413 9.37323 4.16287 9.12666 4.16542 8.88003C4.14937 7.89629 4.47437 6.93733 5.08522 6.16605C5.1466 6.08564 5.21197 6.00836 5.2811 5.93451C5.40358 5.79745 5.48593 5.6293 5.51911 5.44852C5.55228 5.26773 5.53501 5.0813 5.46917 4.90968C5.40168 4.72914 5.34972 4.54317 5.31384 4.35379C5.23234 3.81529 5.25907 3.26594 5.39247 2.7379C6.26196 2.98347 7.08027 3.3832 7.80844 3.91806C7.92886 3.99826 8.06512 4.05164 8.20797 4.07456C8.35083 4.09749 8.49695 4.08943 8.63641 4.05093C10.6583 3.50221 12.79 3.50255 14.8117 4.05193C14.952 4.09039 15.0989 4.09799 15.2423 4.07421C15.3857 4.05043 15.5223 3.99583 15.6426 3.91418C16.3674 3.37711 17.1823 2.9738 18.0489 2.72328C18.1817 3.23864 18.2114 3.77516 18.1363 4.30203C18.1001 4.50965 18.0435 4.71319 17.9673 4.9097C17.9015 5.08132 17.8842 5.26775 17.9174 5.44854C17.9505 5.62932 18.0329 5.79747 18.1554 5.93453C18.2326 6.02147 18.3097 6.11526 18.3791 6.20318C18.9856 6.96141 19.3051 7.90934 19.2813 8.88002C19.2832 9.13973 19.2706 9.39935 19.2437 9.65767C19.0234 12.7146 17.5175 14.1233 14.0458 14.519C13.8532 14.5409 13.6711 14.6184 13.5217 14.7419C13.3723 14.8654 13.2619 15.0296 13.2041 15.2147C13.1463 15.3997 13.1436 15.5976 13.1961 15.7842C13.2487 15.9708 13.3543 16.1381 13.5002 16.2658C13.749 16.5109 13.9125 16.8294 13.9667 17.1744C14.0343 17.4422 14.0654 17.7179 14.059 17.994V20.329C14.0492 20.9767 14.0492 21.4622 14.0492 21.685C14.0492 21.9503 14.1546 22.2047 14.3423 22.3924C14.5299 22.58 14.7843 22.6854 15.0497 22.6854C15.315 22.6854 15.5694 22.58 15.757 22.3924C15.9447 22.2047 16.0501 21.9503 16.0501 21.685C16.0501 21.4681 16.0501 20.9923 16.0598 20.3446V17.994C16.0679 17.5517 16.0158 17.1103 15.905 16.682C15.8733 16.5414 15.8345 16.4025 15.7887 16.2658C17.3106 16.013 18.6934 15.2283 19.6909 14.0515C20.6884 12.8747 21.236 11.3821 21.2362 9.83939C21.2692 9.52069 21.2845 9.20041 21.2822 8.88002C21.3044 7.49823 20.8592 6.14945 20.0189 5.0523L20.019 5.05228Z" fill="white"/>
</svg>
