<svg width="21" height="21" viewBox="0 0 21 21" fill="none" xmlns="http://www.w3.org/2000/svg">
<path d="M10.2555 5.6751C9.26618 5.6751 8.29909 5.96847 7.47652 6.51809C6.65394 7.06772 6.01282 7.84893 5.63423 8.76293C5.25564 9.67692 5.15658 10.6827 5.34959 11.653C5.54259 12.6233 6.01898 13.5145 6.71853 14.2141C7.41807 14.9136 8.30934 15.39 9.27964 15.583C10.2499 15.776 11.2557 15.677 12.1697 15.2984C13.0837 14.9198 13.8649 14.2787 14.4145 13.4561C14.9641 12.6335 15.2575 11.6664 15.2575 10.6771C15.2575 9.3505 14.7305 8.07822 13.7924 7.14016C12.8544 6.2021 11.5821 5.6751 10.2555 5.6751ZM10.2555 13.6783C9.6619 13.6783 9.08165 13.5023 8.5881 13.1725C8.09456 12.8427 7.70988 12.374 7.48273 11.8256C7.25558 11.2772 7.19614 10.6738 7.31194 10.0916C7.42775 9.50943 7.71358 8.97467 8.13331 8.55494C8.55304 8.13521 9.0878 7.84938 9.66998 7.73357C10.2522 7.61777 10.8556 7.67721 11.404 7.90436C11.9524 8.13152 12.4211 8.51619 12.7509 9.00973C13.0807 9.50328 13.2567 10.0835 13.2567 10.6771C13.2567 11.4731 12.9405 12.2365 12.3777 12.7993C11.8148 13.3621 11.0515 13.6783 10.2555 13.6783ZM15.2575 4.6747C15.0596 4.6747 14.8662 4.73338 14.7017 4.8433C14.5372 4.95323 14.409 5.10947 14.3332 5.29227C14.2575 5.47507 14.2377 5.67621 14.2763 5.87027C14.3149 6.06433 14.4102 6.24259 14.5501 6.38249C14.69 6.5224 14.8683 6.61768 15.0623 6.65628C15.2564 6.69488 15.4575 6.67507 15.6403 6.59936C15.8231 6.52364 15.9794 6.39541 16.0893 6.2309C16.1992 6.06638 16.2579 5.87297 16.2579 5.6751C16.2579 5.40978 16.1525 5.15533 15.9649 4.96771C15.7773 4.7801 15.5228 4.6747 15.2575 4.6747ZM20.1995 6.9156C20.1829 6.06068 20.0205 5.21487 19.7193 4.4146C19.44 3.68637 19.0106 3.02503 18.4591 2.47352C17.9076 1.922 17.2462 1.49264 16.518 1.21331C15.7177 0.912091 14.8719 0.749694 14.017 0.73312C13.0466 0.673096 12.7265 0.673096 10.2555 0.673096C7.78449 0.673096 7.46436 0.673096 6.49397 0.73312C5.63905 0.749694 4.79323 0.912091 3.99297 1.21331C3.26474 1.49264 2.6034 1.922 2.05189 2.47352C1.50037 3.02503 1.07101 3.68637 0.791682 4.4146C0.49046 5.21487 0.328063 6.06068 0.311489 6.9156C0.251465 7.896 0.251465 8.21612 0.251465 10.6771C0.251465 13.1381 0.251465 13.4582 0.311489 14.4386C0.328063 15.2935 0.49046 16.1394 0.791682 16.9396C1.07101 17.6679 1.50037 18.3292 2.05189 18.8807C2.6034 19.4322 3.26474 19.8616 3.99297 20.1409C4.79323 20.4421 5.63905 20.6045 6.49397 20.6211C7.49437 20.6211 7.78449 20.6811 10.2555 20.6811C12.7265 20.6811 13.0466 20.6811 14.017 20.6211C14.8719 20.6045 15.7177 20.4421 16.518 20.1409C17.2462 19.8616 17.9076 19.4322 18.4591 18.8807C19.0106 18.3292 19.44 17.6679 19.7193 16.9396C20.0205 16.1394 20.1829 15.2935 20.1995 14.4386C20.1995 13.4382 20.2595 13.1381 20.2595 10.6771C20.2595 8.21612 20.2595 7.896 20.1995 6.9156ZM18.1987 14.3486C18.1811 14.9835 18.063 15.6115 17.8485 16.2093C17.6712 16.6819 17.391 17.109 17.0282 17.4598C16.6795 17.8228 16.2515 18.1002 15.7777 18.2702C15.1785 18.4934 14.5462 18.6151 13.9069 18.6303C12.9666 18.6303 12.6765 18.6803 10.2455 18.6803C7.8145 18.6803 7.53439 18.6803 6.59401 18.6803C5.95578 18.6638 5.32425 18.5456 4.72326 18.3302C4.25073 18.1529 3.82357 17.8727 3.47276 17.5099C3.10977 17.1611 2.83242 16.7331 2.66243 16.2594C2.44015 15.6633 2.31844 15.0345 2.30229 14.3986C2.30229 13.3982 2.30229 13.1481 2.30229 10.7271C2.30229 8.30616 2.30229 8.01604 2.30229 7.05566C2.31953 6.41661 2.44119 5.78468 2.66243 5.18491C2.83506 4.71535 3.11215 4.29117 3.47276 3.94441C3.82147 3.58142 4.24948 3.30407 4.72326 3.13408C5.32249 2.91089 5.95475 2.78917 6.59401 2.77394C7.53439 2.6739 7.82451 2.6739 10.2555 2.6739C12.6865 2.6739 12.9766 2.6739 13.917 2.6739C14.5594 2.69023 15.1947 2.8119 15.7977 3.03404C16.2673 3.20667 16.6914 3.48376 17.0382 3.84437C17.4012 4.19308 17.6785 4.62109 17.8485 5.09487C18.0934 5.70368 18.2322 6.34996 18.2587 7.00564C18.2587 8.00604 18.3087 8.25614 18.3087 10.6771C18.3087 13.0981 18.2587 13.3882 18.2587 14.3486H18.1987Z" fill="white"/>
</svg>
