<svg width="23" height="22" viewBox="0 0 23 22" fill="none" xmlns="http://www.w3.org/2000/svg">
<path d="M16.825 7.67427C15.9293 7.67389 15.0476 7.89542 14.2585 8.31906C14.1865 8.12941 14.0585 7.96615 13.8915 7.85098C13.7245 7.73581 13.5264 7.67418 13.3236 7.67427H9.32195C9.19056 7.6742 9.06044 7.70002 8.93903 7.75027C8.81762 7.80052 8.70731 7.8742 8.6144 7.96711C8.52149 8.06003 8.4478 8.17034 8.39755 8.29175C8.3473 8.41315 8.32148 8.54328 8.32155 8.67467V20.6795C8.32148 20.8109 8.3473 20.941 8.39755 21.0624C8.44779 21.1838 8.52148 21.2941 8.61439 21.3871C8.7073 21.48 8.81762 21.5536 8.93903 21.6039C9.06043 21.6541 9.19056 21.68 9.32195 21.6799H13.3236C13.455 21.68 13.5851 21.6541 13.7065 21.6039C13.8279 21.5536 13.9382 21.48 14.0311 21.3871C14.124 21.2941 14.1977 21.1838 14.248 21.0624C14.2982 20.941 14.324 20.8109 14.324 20.6795V15.1773C14.324 14.912 14.4294 14.6575 14.617 14.4699C14.8046 14.2823 15.059 14.1769 15.3244 14.1769C15.5897 14.1769 15.8441 14.2823 16.0318 14.4699C16.2194 14.6575 16.3248 14.912 16.3248 15.1773V20.6795C16.3247 20.8109 16.3505 20.941 16.4008 21.0624C16.451 21.1838 16.5247 21.2941 16.6176 21.3871C16.7105 21.48 16.8208 21.5536 16.9422 21.6039C17.0636 21.6541 17.1938 21.68 17.3252 21.6799H21.3268C21.4582 21.68 21.5883 21.6541 21.7097 21.6039C21.8311 21.5536 21.9414 21.48 22.0343 21.3871C22.1272 21.2941 22.2009 21.1838 22.2512 21.0624C22.3014 20.941 22.3273 20.8109 22.3272 20.6795V13.1765C22.3254 11.7178 21.7451 10.3193 20.7136 9.28783C19.6821 8.25636 18.2837 7.67608 16.825 7.67427ZM20.3264 19.6791H18.3256V15.1773C18.3256 14.3813 18.0094 13.6179 17.4465 13.0551C16.8837 12.4923 16.1203 12.1761 15.3244 12.1761C14.5284 12.1761 13.765 12.4923 13.2022 13.0551C12.6394 13.6179 12.3232 14.3813 12.3232 15.1773V19.6791H10.3224V9.67507H12.3232V10.3785C12.3233 10.5858 12.3878 10.7879 12.5077 10.957C12.6276 11.126 12.7971 11.2537 12.9927 11.3223C13.1883 11.391 13.4003 11.3972 13.5996 11.3401C13.7989 11.283 13.9755 11.1655 14.1051 11.0037C14.5541 10.4335 15.1699 10.0178 15.8666 9.8145C16.5632 9.61122 17.306 9.63058 17.9912 9.86986C18.6763 10.1091 19.2696 10.5564 19.6883 11.1492C20.1069 11.742 20.33 12.4508 20.3264 13.1765V19.6791ZM6.32075 7.67427H2.31914C2.18775 7.6742 2.05762 7.70002 1.93622 7.75027C1.81481 7.80052 1.70449 7.8742 1.61158 7.96711C1.51867 8.06003 1.44499 8.17034 1.39474 8.29175C1.34449 8.41315 1.31866 8.54328 1.31874 8.67467V20.6795C1.31866 20.8109 1.34449 20.941 1.39474 21.0624C1.44498 21.1838 1.51867 21.2941 1.61158 21.3871C1.70449 21.48 1.81481 21.5536 1.93621 21.6039C2.05762 21.6541 2.18775 21.68 2.31914 21.6799H6.32075C6.45214 21.68 6.58227 21.6541 6.70368 21.6039C6.82508 21.5536 6.9354 21.48 7.02831 21.3871C7.12122 21.2941 7.19491 21.1838 7.24515 21.0624C7.2954 20.941 7.32123 20.8109 7.32115 20.6795V8.67467C7.32123 8.54328 7.2954 8.41315 7.24515 8.29175C7.1949 8.17034 7.12122 8.06003 7.02831 7.96711C6.9354 7.8742 6.82508 7.80052 6.70367 7.75027C6.58227 7.70002 6.45214 7.6742 6.32075 7.67427ZM5.32035 19.6791H3.31954V9.67507H5.32035V19.6791ZM4.3346 0.214275C3.89679 0.188068 3.45822 0.251187 3.04556 0.399794C2.6329 0.548401 2.25479 0.77939 1.9342 1.07871C1.61362 1.37804 1.35727 1.73944 1.18074 2.14095C1.00422 2.54245 0.911199 2.97567 0.907351 3.41425C0.903503 3.85283 0.988904 4.28761 1.15836 4.69216C1.32782 5.0967 1.57779 5.46254 1.89307 5.76745C2.20835 6.07235 2.58236 6.30994 2.99234 6.46576C3.40232 6.62159 3.83972 6.69239 4.27793 6.67387H4.30626C4.74523 6.69994 5.18491 6.63624 5.59843 6.48664C6.01195 6.33705 6.39063 6.10471 6.71133 5.80383C7.03202 5.50294 7.288 5.13983 7.46361 4.73667C7.63923 4.33351 7.7308 3.89878 7.73273 3.45904C7.73466 3.0193 7.64691 2.58378 7.47483 2.1791C7.30276 1.77441 7.04997 1.40907 6.73193 1.10538C6.41389 0.801691 6.03727 0.566041 5.62507 0.412827C5.21288 0.259612 4.77378 0.192053 4.33459 0.214275H4.3346ZM4.30627 4.67307H4.27793C4.10493 4.69407 3.92943 4.67785 3.76321 4.62547C3.59699 4.5731 3.4439 4.4858 3.31418 4.36941C3.18447 4.25302 3.08115 4.11024 3.01113 3.95065C2.94112 3.79106 2.90604 3.61834 2.90825 3.44408C2.90825 2.69768 3.46804 2.21507 4.3346 2.21507C4.50937 2.19177 4.6871 2.20619 4.85583 2.25737C5.02455 2.30854 5.18035 2.39528 5.31273 2.51174C5.44511 2.6282 5.551 2.77167 5.62326 2.9325C5.69552 3.09332 5.73248 3.26777 5.73164 3.44408C5.73164 4.19047 5.17185 4.67307 4.30627 4.67307Z" fill="white"/>
</svg>
