<svg width="115" height="42" viewBox="0 0 115 42" fill="none" xmlns="http://www.w3.org/2000/svg">
<g clip-path="url(#clip0_289_1827)">
<path d="M56.6228 31.0001H60.1228L61.4228 27.2001H68.3228L69.6228 31.0001H73.2228L67.0228 13.1001H62.8228L56.6228 31.0001ZM62.3228 24.3001L64.8228 16.8001L67.3228 24.3001H62.3228Z" fill="#232E35"/>
<path d="M74.8228 31H77.9228V12.8H74.8228V31Z" fill="#232E35"/>
<path d="M87.1229 31.2999C88.4229 31.2999 89.6229 31 90.6229 30.4C91.6229 29.7999 92.3229 29 92.7229 28.1L90.2229 26.9C89.9229 27.4 89.5229 27.8 89.0229 28.1C88.5229 28.4 87.9229 28.6 87.2229 28.6C86.3229 28.6 85.5229 28.3 84.8229 27.7C84.1229 27.1 83.8229 26.4 83.7229 25.4H93.1229C93.2229 25.2 93.2229 24.9999 93.2229 24.7999C93.2229 24.5999 93.2229 24.3 93.2229 24.1C93.2229 22.9 93.0229 21.9 92.5229 20.9C92.0229 19.9 91.3229 19.2 90.3229 18.6C89.4229 18 88.2229 17.7 86.8229 17.7C85.6229 17.7 84.5229 18 83.5229 18.6C82.5229 19.2 81.7229 20 81.2229 21C80.6229 22 80.4229 23.2 80.4229 24.5C80.4229 25.8 80.7229 26.9 81.2229 28C81.8229 29 82.5229 29.9 83.6229 30.5C84.6229 31 85.7229 31.2999 87.1229 31.2999ZM86.8229 20.2C87.6229 20.2 88.3229 20.5 88.9229 21C89.5229 21.5 89.8229 22.0999 89.8229 22.9H83.7229C83.9229 21.9999 84.2229 21.4 84.8229 20.9C85.4229 20.4999 86.1229 20.2 86.8229 20.2Z" fill="#232E35"/>
<path d="M94.2227 30.9999H97.9227L100.623 26.8999L103.323 30.9999H107.023L102.523 24.3999L107.123 17.8999H103.423L100.723 21.9999L97.9227 17.8999H94.2227L98.8227 24.3999L94.2227 30.9999Z" fill="#232E35"/>
<path d="M110.223 31.0001H113.423V27.6001H110.223V31.0001Z" fill="#232E35"/>
<path d="M20.3228 1C9.32275 1 0.322754 10 0.322754 21C0.322754 32 9.32275 41 20.3228 41C31.3228 41 40.3228 32 40.3228 21C40.3228 10 31.3228 1 20.3228 1ZM12.1228 28.5C9.92275 28.5 8.12275 26.7 8.12275 24.5C8.12275 22.3 9.92275 20.5 12.1228 20.5C14.3228 20.5 16.1228 22.3 16.1228 24.5C16.1228 26.7 14.3228 28.5 12.1228 28.5ZM28.8228 27.4C27.0228 28.5 24.6228 27.8 23.5228 26L17.9228 16.3C16.8228 14.5 17.5228 12.1 19.3228 11C21.1228 9.9 23.5228 10.6 24.6228 12.4L30.2228 22.1C31.3228 24 30.6228 26.4 28.8228 27.4Z" fill="#232E35"/>
</g>
<defs>
<clipPath id="clip0_289_1827">
<rect width="114" height="41" fill="white" transform="translate(0.322754 0.5)"/>
</clipPath>
</defs>
</svg>
