<svg width="184" height="47" viewBox="0 0 184 47" fill="none" xmlns="http://www.w3.org/2000/svg">
<path d="M15.5189 28.6808C14.7937 28.6808 14.1826 28.4324 13.6857 27.9355C13.1889 27.4251 12.9404 26.8141 12.9404 26.1023V20.9453H15.5189V24.8131C15.5189 25.1756 15.6399 25.4845 15.8815 25.7398C16.1367 25.9814 16.4456 26.1023 16.8082 26.1023H28.4114C28.4114 26.8275 28.1563 27.4386 27.6459 27.9355C27.1356 28.4324 26.5313 28.6808 25.8329 28.6808H15.5189ZM12.9404 18.3668V15.7883H28.4114C28.4114 16.5135 28.1563 17.1246 27.6459 17.6215C27.1356 18.1184 26.5313 18.3668 25.8329 18.3668H12.9404ZM30.9899 28.6808V20.9453C30.9899 20.2335 31.2384 19.6293 31.7352 19.1324C32.2457 18.622 32.8566 18.3668 33.5684 18.3668H43.8824V28.6808H41.3039V20.9453H34.8577C34.4951 20.9453 34.1862 21.073 33.931 21.3281C33.6894 21.5833 33.5684 21.8855 33.5684 22.2346V26.1023H41.3039C41.3039 26.8275 41.0488 27.4386 40.5384 27.9355C40.0281 28.4324 39.4238 28.6808 38.7254 28.6808H30.9899ZM46.4609 28.6808V15.7883H49.0394V28.6808H46.4609ZM54.1964 28.6808C53.4712 28.6808 52.8601 28.4324 52.3632 27.9355C51.8664 27.4251 51.6179 26.8141 51.6179 26.1023V20.9453C51.6179 20.2335 51.8664 19.6293 52.3632 19.1324C52.8737 18.622 53.4846 18.3668 54.1964 18.3668H64.5104L60.6427 22.2346H64.5104L61.9319 24.8131H55.4857L59.3534 20.9453H55.4857C55.1231 20.9453 54.8142 21.073 54.559 21.3281C54.3174 21.5833 54.1964 21.8855 54.1964 22.2346V24.8131C54.1964 25.1756 54.3174 25.4845 54.559 25.7398C54.8142 25.9814 55.1231 26.1023 55.4857 26.1023H64.5104C64.5104 26.8275 64.2553 27.4386 63.7449 27.9355C63.2346 28.4324 62.6303 28.6808 61.9319 28.6808H54.1964ZM67.0889 28.6808V26.1023H76.1137C76.4628 26.1023 76.765 25.9814 77.0201 25.7398C77.2753 25.4845 77.4029 25.1756 77.4029 24.8131V20.9453H67.0889V15.7883H69.6674V18.3668H79.9814V26.1023C79.9814 26.8275 79.7263 27.4386 79.2159 27.9355C78.7056 28.4324 78.1013 28.6808 77.4029 28.6808H67.0889Z" fill="#2C40F2" fill-opacity="0.75"/>
<path d="M92.8739 28.6808V18.3668L90.2954 15.7883H94.1632L103.188 24.8131V15.7883H105.766V28.6808H103.188L95.4524 20.9453V28.6808H92.8739ZM118.659 31.2593V28.6808H110.923C110.212 28.6808 109.601 28.4324 109.09 27.9355C108.593 27.4386 108.345 26.8275 108.345 26.1023V18.3668H110.923V24.8131C110.923 25.1756 111.044 25.4845 111.286 25.7398C111.541 25.9814 111.85 26.1023 112.213 26.1023H118.659V18.3668H121.237V28.6808C121.237 29.3926 120.982 29.9969 120.472 30.4938C119.962 31.0042 119.357 31.2593 118.659 31.2593ZM132.841 26.1023C133.19 26.1023 133.492 25.9814 133.747 25.7398C134.002 25.4845 134.13 25.1756 134.13 24.8131V20.9453H126.394V24.8131C126.394 25.1756 126.515 25.4845 126.757 25.7398C127.012 25.9814 127.321 26.1023 127.684 26.1023H132.841ZM126.394 28.6808C125.669 28.6808 125.058 28.4324 124.561 27.9355C124.064 27.4251 123.816 26.8141 123.816 26.1023V18.3668H136.708V26.1023C136.708 26.8275 136.453 27.4386 135.943 27.9355C135.432 28.4324 134.829 28.6808 134.13 28.6808H126.394ZM139.287 28.6808V18.3668H149.601C150.313 18.3668 150.917 18.622 151.414 19.1324C151.924 19.6427 152.179 20.2469 152.179 20.9453V28.6808H149.601V22.2346C149.601 21.8855 149.473 21.5833 149.218 21.3281C148.963 21.073 148.661 20.9453 148.312 20.9453H141.865V28.6808H139.287ZM165.072 31.2593V28.6808H157.336C156.625 28.6808 156.014 28.4324 155.503 27.9355C155.007 27.4386 154.758 26.8275 154.758 26.1023V18.3668H167.65C167.65 19.092 167.395 19.7031 166.885 20.2C166.374 20.6969 165.771 20.9453 165.072 20.9453H157.336V24.8131C157.336 25.1756 157.458 25.4845 157.699 25.7398C157.954 25.9814 158.263 26.1023 158.626 26.1023H165.072V23.5238H167.65V28.6808C167.65 29.3926 167.395 29.9969 166.885 30.4938C166.374 31.0042 165.771 31.2593 165.072 31.2593Z" fill="#F1F1F1"/>
</svg>
