<svg width="23" height="20" viewBox="0 0 23 20" fill="none" xmlns="http://www.w3.org/2000/svg">
<path d="M22.2962 1.62456C22.2963 1.44786 22.2496 1.27428 22.1608 1.1215C22.072 0.968727 21.9443 0.842212 21.7907 0.754842C21.6371 0.667471 21.4631 0.622367 21.2864 0.624122C21.1097 0.625878 20.9366 0.67443 20.7848 0.764834C20.1993 1.11336 19.5688 1.38027 18.9111 1.55815C17.9717 0.752062 16.7735 0.310956 15.5357 0.315464C14.1777 0.317027 12.8735 0.84627 11.8984 1.79144C10.9234 2.73661 10.3538 4.02371 10.31 5.38098C7.63287 4.95407 5.20655 3.55677 3.49368 1.45554C3.39047 1.33033 3.25867 1.23177 3.10939 1.16817C2.9601 1.10458 2.79771 1.07782 2.63591 1.09014C2.47421 1.10346 2.31818 1.15596 2.18132 1.24312C2.04447 1.33027 1.9309 1.44945 1.85044 1.59035C1.4378 2.31045 1.20081 3.11772 1.15871 3.9466C1.11661 4.77548 1.27059 5.60261 1.60815 6.36081L1.6062 6.36276C1.45449 6.4562 1.32928 6.58701 1.24256 6.74266C1.15584 6.89832 1.1105 7.07362 1.11088 7.2518C1.10905 7.39879 1.11786 7.54571 1.13726 7.69143C1.23944 8.9502 1.79731 10.1285 2.70625 11.0053C2.64459 11.1227 2.60696 11.2513 2.59555 11.3835C2.58414 11.5157 2.59919 11.6488 2.63982 11.7751C3.03609 13.0097 3.87881 14.0521 5.00308 14.6981C3.86086 15.1398 2.62754 15.2938 1.41178 15.1466C1.18677 15.1183 0.958831 15.1674 0.765372 15.2857C0.571912 15.4041 0.424413 15.5847 0.347071 15.7978C0.269728 16.011 0.267134 16.2442 0.339714 16.459C0.412293 16.6739 0.555737 16.8577 0.746516 16.9803C2.83745 18.327 5.27201 19.043 7.7591 19.0427C10.5795 19.0744 13.3313 18.1731 15.5865 16.4791C17.8417 14.7851 19.4738 12.3932 20.2289 9.67559C20.5821 8.49175 20.7625 7.26309 20.7643 6.02769C20.7643 5.96223 20.7643 5.89482 20.7633 5.82742C21.2856 5.26412 21.6903 4.60223 21.9535 3.88053C22.2167 3.15884 22.3332 2.39186 22.2962 1.62456ZM18.9882 4.83776C18.8229 5.03318 18.7393 5.28474 18.7547 5.54019C18.7645 5.70526 18.7635 5.87132 18.7635 6.02769C18.7614 7.07165 18.6084 8.10982 18.3092 9.10998C17.6925 11.4223 16.3176 13.4608 14.4047 14.8989C12.4919 16.337 10.1517 17.0916 7.7591 17.0419C6.89964 17.0421 6.04313 16.9411 5.2073 16.741C6.27314 16.3975 7.26972 15.8679 8.15086 15.1769C8.31315 15.0491 8.43192 14.8742 8.49088 14.6763C8.54984 14.4783 8.5461 14.2669 8.48017 14.0712C8.41423 13.8754 8.28934 13.7049 8.12263 13.5829C7.95591 13.461 7.75555 13.3936 7.54902 13.39C6.71751 13.3771 5.9235 13.0419 5.33426 12.4551C5.48374 12.4267 5.63224 12.3916 5.77976 12.3496C5.99586 12.2881 6.18496 12.1556 6.31663 11.9736C6.4483 11.7915 6.51487 11.5704 6.50562 11.3459C6.49637 11.1214 6.41184 10.9066 6.26564 10.736C6.11944 10.5654 5.92007 10.4489 5.69965 10.4054C5.21699 10.3101 4.76281 10.1048 4.37243 9.80537C3.98204 9.50597 3.66595 9.12057 3.44874 8.67914C3.62954 8.70382 3.8115 8.71915 3.99388 8.72506C4.21055 8.72833 4.42265 8.66261 4.5995 8.53739C4.77635 8.41217 4.90879 8.23395 4.97768 8.02849C5.04368 7.82117 5.04028 7.59798 4.968 7.39277C4.89572 7.18755 4.75849 7.0115 4.57713 6.89131C4.1371 6.59817 3.77665 6.20046 3.52806 5.73381C3.27947 5.26715 3.15051 4.74613 3.15272 4.2174C3.15272 4.15097 3.15467 4.08454 3.15858 4.01908C5.40075 6.11017 8.30898 7.34286 11.3709 7.49997C11.5254 7.50606 11.6794 7.47695 11.821 7.41483C11.9627 7.35272 12.0884 7.25923 12.1886 7.14142C12.2878 7.02248 12.3581 6.88213 12.3938 6.73142C12.4296 6.58071 12.4299 6.42376 12.3947 6.27292C12.3375 6.03418 12.3083 5.78959 12.3077 5.5441C12.3086 4.68829 12.649 3.8678 13.2542 3.26265C13.8593 2.65751 14.6798 2.31714 15.5356 2.31624C15.9759 2.31506 16.4117 2.40517 16.8154 2.58089C17.2192 2.75661 17.5821 3.01412 17.8813 3.33716C17.9967 3.46129 18.1419 3.55384 18.3031 3.606C18.4644 3.65816 18.6363 3.6682 18.8025 3.63517C19.2135 3.55519 19.6185 3.44748 20.0149 3.31278C19.7446 3.86597 19.399 4.37915 18.9882 4.83776Z" fill="white"/>
</svg>
