<svg width="21" height="21" viewBox="0 0 21 21" fill="none" xmlns="http://www.w3.org/2000/svg">
<path d="M10.0533 5.24786C9.06403 5.24786 8.09694 5.54122 7.27437 6.09085C6.45179 6.64048 5.81067 7.42168 5.43208 8.33568C5.05349 9.24968 4.95443 10.2554 5.14744 11.2257C5.34044 12.196 5.81684 13.0873 6.51638 13.7868C7.21592 14.4864 8.1072 14.9628 9.07749 15.1558C10.0478 15.3488 11.0535 15.2497 11.9675 14.8711C12.8815 14.4925 13.6627 13.8514 14.2124 13.0288C14.762 12.2063 15.0553 11.2392 15.0553 10.2499C15.0553 8.92325 14.5283 7.65097 13.5903 6.71291C12.6522 5.77485 11.3799 5.24786 10.0533 5.24786ZM10.0533 13.2511C9.45975 13.2511 8.8795 13.0751 8.38595 12.7453C7.89241 12.4155 7.50774 11.9468 7.28058 11.3984C7.05343 10.85 6.99399 10.2465 7.1098 9.66436C7.2256 9.08218 7.51143 8.54742 7.93116 8.12769C8.35089 7.70797 8.88565 7.42213 9.46783 7.30633C10.05 7.19053 10.6534 7.24996 11.2018 7.47711C11.7502 7.70427 12.219 8.08894 12.5487 8.58249C12.8785 9.07603 13.0545 9.65628 13.0545 10.2499C13.0545 11.0458 12.7383 11.8092 12.1755 12.372C11.6127 12.9349 10.8493 13.2511 10.0533 13.2511ZM15.0553 4.24746C14.8575 4.24746 14.6641 4.30613 14.4995 4.41605C14.335 4.52598 14.2068 4.68222 14.1311 4.86502C14.0554 5.04782 14.0356 5.24897 14.0742 5.44303C14.1128 5.63709 14.208 5.81534 14.348 5.95525C14.4879 6.09516 14.6661 6.19044 14.8602 6.22904C15.0542 6.26764 15.2554 6.24783 15.4382 6.17211C15.621 6.09639 15.7772 5.96817 15.8871 5.80365C15.9971 5.63914 16.0557 5.44572 16.0557 5.24786C16.0557 4.98254 15.9503 4.72808 15.7627 4.54047C15.5751 4.35286 15.3207 4.24746 15.0553 4.24746ZM19.9973 6.48836C19.9808 5.63344 19.8184 4.78762 19.5171 3.98735C19.2378 3.25913 18.8084 2.59779 18.2569 2.04627C17.7054 1.49476 17.0441 1.06539 16.3158 0.786067C15.5156 0.484845 14.6698 0.322448 13.8148 0.305874C12.8445 0.24585 12.5243 0.24585 10.0533 0.24585C7.58234 0.24585 7.26221 0.24585 6.29182 0.305874C5.4369 0.322448 4.59109 0.484845 3.79082 0.786067C3.06259 1.06539 2.40125 1.49476 1.84974 2.04627C1.29822 2.59779 0.868862 3.25913 0.589533 3.98735C0.288312 4.78762 0.125915 5.63344 0.10934 6.48836C0.0493164 7.46875 0.0493164 7.78888 0.0493164 10.2499C0.0493164 12.7109 0.0493164 13.031 0.10934 14.0114C0.125915 14.8663 0.288312 15.7121 0.589533 16.5124C0.868862 17.2406 1.29822 17.9019 1.84974 18.4535C2.40125 19.005 3.06259 19.4343 3.79082 19.7137C4.59109 20.0149 5.4369 20.1773 6.29182 20.1939C7.29222 20.1939 7.58234 20.2539 10.0533 20.2539C12.5243 20.2539 12.8445 20.2539 13.8148 20.1939C14.6698 20.1773 15.5156 20.0149 16.3158 19.7137C17.0441 19.4343 17.7054 19.005 18.2569 18.4535C18.8084 17.9019 19.2378 17.2406 19.5171 16.5124C19.8184 15.7121 19.9808 14.8663 19.9973 14.0114C19.9973 13.011 20.0574 12.7109 20.0574 10.2499C20.0574 7.78888 20.0574 7.46875 19.9973 6.48836ZM17.9965 13.9213C17.979 14.5562 17.8608 15.1843 17.6464 15.7821C17.4691 16.2546 17.1889 16.6818 16.8261 17.0326C16.4773 17.3956 16.0493 17.6729 15.5756 17.8429C14.9763 18.0661 14.3441 18.1878 13.7048 18.2031C12.7644 18.2031 12.4743 18.2531 10.0433 18.2531C7.61235 18.2531 7.33224 18.2531 6.39186 18.2531C5.75363 18.2366 5.12211 18.1184 4.52111 17.9029C4.04858 17.7257 3.62142 17.4454 3.27061 17.0826C2.90762 16.7339 2.63027 16.3059 2.46028 15.8321C2.238 15.2361 2.11629 14.6073 2.10014 13.9714C2.10014 12.971 2.10014 12.7209 2.10014 10.2999C2.10014 7.87891 2.10014 7.5888 2.10014 6.62841C2.11738 5.98936 2.23904 5.35744 2.46028 4.75766C2.63291 4.28811 2.91 3.86392 3.27061 3.51716C3.61933 3.15417 4.04733 2.87683 4.52111 2.70684C5.12034 2.48364 5.7526 2.36193 6.39186 2.34669C7.33224 2.24665 7.62236 2.24665 10.0533 2.24665C12.4843 2.24665 12.7744 2.24665 13.7148 2.24665C14.3572 2.26299 14.9926 2.38465 15.5956 2.6068C16.0651 2.77942 16.4893 3.05651 16.8361 3.41712C17.199 3.76584 17.4764 4.19384 17.6464 4.66763C17.8913 5.27643 18.03 5.92271 18.0565 6.57839C18.0565 7.57879 18.1066 7.82889 18.1066 10.2499C18.1066 12.6708 18.0565 12.961 18.0565 13.9213H17.9965Z" fill="#F1F1F1" fill-opacity="0.7"/>
</svg>
