<svg width="23" height="23" viewBox="0 0 23 23" fill="none" xmlns="http://www.w3.org/2000/svg">
<path d="M16.6223 8.24849C15.7267 8.24811 14.845 8.46964 14.0559 8.89328C13.9839 8.70363 13.8559 8.54037 13.6889 8.4252C13.5219 8.31003 13.3238 8.2484 13.1209 8.24849H9.11932C8.98792 8.24841 8.8578 8.27424 8.73639 8.32449C8.61498 8.37474 8.50467 8.44842 8.41176 8.54133C8.31885 8.63424 8.24516 8.74456 8.19491 8.86597C8.14467 8.98737 8.11884 9.1175 8.11892 9.24889V21.2537C8.11884 21.3851 8.14466 21.5152 8.19491 21.6366C8.24516 21.758 8.31884 21.8684 8.41176 21.9613C8.50467 22.0542 8.61498 22.1279 8.73639 22.1781C8.8578 22.2284 8.98792 22.2542 9.11932 22.2541H13.1209C13.2523 22.2542 13.3824 22.2284 13.5039 22.1781C13.6253 22.1279 13.7356 22.0542 13.8285 21.9613C13.9214 21.8684 13.9951 21.758 14.0453 21.6366C14.0956 21.5152 14.1214 21.3851 14.1213 21.2537V15.7515C14.1213 15.4862 14.2267 15.2317 14.4143 15.0441C14.6019 14.8565 14.8564 14.7511 15.1217 14.7511C15.387 14.7511 15.6415 14.8565 15.8291 15.0441C16.0167 15.2317 16.1221 15.4862 16.1221 15.7515V21.2537C16.1221 21.3851 16.1479 21.5152 16.1981 21.6366C16.2484 21.758 16.3221 21.8684 16.415 21.9613C16.5079 22.0542 16.6182 22.1279 16.7396 22.1781C16.861 22.2284 16.9911 22.2542 17.1225 22.2541H21.1241C21.2555 22.2542 21.3857 22.2284 21.5071 22.1781C21.6285 22.1279 21.7388 22.0542 21.8317 21.9613C21.9246 21.8684 21.9983 21.758 22.0485 21.6366C22.0988 21.5152 22.1246 21.3851 22.1245 21.2537V13.7507C22.1227 12.292 21.5424 10.8935 20.511 9.86205C19.4795 8.83058 18.081 8.2503 16.6223 8.24849ZM20.1237 20.2533H18.1229V15.7515C18.1229 14.9555 17.8067 14.1922 17.2439 13.6293C16.6811 13.0665 15.9177 12.7503 15.1217 12.7503C14.3258 12.7503 13.5624 13.0665 12.9996 13.6293C12.4367 14.1922 12.1205 14.9555 12.1205 15.7515V20.2533H10.1197V10.2493H12.1205V10.9527C12.1206 11.16 12.1851 11.3621 12.305 11.5312C12.425 11.7003 12.5944 11.8279 12.79 11.8966C12.9856 11.9652 13.1977 11.9714 13.397 11.9143C13.5962 11.8573 13.7729 11.7397 13.9025 11.578C14.3514 11.0078 14.9673 10.592 15.6639 10.3887C16.3606 10.1854 17.1034 10.2048 17.7885 10.4441C18.4737 10.6834 19.067 11.1306 19.4856 11.7234C19.9043 12.3162 20.1274 13.025 20.1237 13.7507V20.2533ZM6.11811 8.24849H2.1165C1.98511 8.24841 1.85499 8.27424 1.73358 8.32449C1.61217 8.37474 1.50186 8.44842 1.40895 8.54133C1.31604 8.63424 1.24235 8.74456 1.1921 8.86597C1.14185 8.98737 1.11603 9.1175 1.1161 9.24889V21.2537C1.11603 21.3851 1.14185 21.5152 1.1921 21.6366C1.24235 21.758 1.31603 21.8684 1.40894 21.9613C1.50185 22.0542 1.61217 22.1279 1.73358 22.1781C1.85499 22.2284 1.98511 22.2542 2.1165 22.2541H6.11811C6.24951 22.2542 6.37963 22.2284 6.50104 22.1781C6.62245 22.1279 6.73276 22.0542 6.82567 21.9613C6.91858 21.8684 6.99227 21.758 7.04252 21.6366C7.09277 21.5152 7.11859 21.3851 7.11851 21.2537V9.24889C7.11859 9.1175 7.09276 8.98737 7.04252 8.86597C6.99227 8.74456 6.91858 8.63424 6.82567 8.54133C6.73276 8.44842 6.62245 8.37474 6.50104 8.32449C6.37963 8.27424 6.24951 8.24841 6.11811 8.24849ZM5.11771 20.2533H3.11691V10.2493H5.11771V20.2533ZM4.13196 0.788494C3.69415 0.762287 3.25558 0.825406 2.84292 0.974013C2.43027 1.12262 2.05215 1.35361 1.73157 1.65293C1.41098 1.95226 1.15463 2.31366 0.978106 2.71517C0.801578 3.11667 0.708562 3.54989 0.704714 3.98847C0.700866 4.42705 0.786267 4.86183 0.955723 5.26637C1.12518 5.67092 1.37515 6.03676 1.69043 6.34167C2.00571 6.64657 2.37972 6.88416 2.7897 7.03998C3.19969 7.1958 3.63708 7.26661 4.07529 7.24809H4.10362C4.5426 7.27416 4.98228 7.21046 5.3958 7.06086C5.80932 6.91127 6.18799 6.67893 6.50869 6.37805C6.82938 6.07716 7.08536 5.71405 7.26098 5.31089C7.4366 4.90773 7.52817 4.473 7.5301 4.03326C7.53202 3.59351 7.44427 3.158 7.27219 2.75331C7.10012 2.34863 6.84734 1.98328 6.5293 1.6796C6.21125 1.37591 5.83463 1.14026 5.42244 0.987045C5.01024 0.833831 4.57114 0.766271 4.13195 0.788494H4.13196ZM4.10363 5.24728H4.07529C3.90229 5.26829 3.72679 5.25207 3.56058 5.19969C3.39436 5.14732 3.24126 5.06001 3.11155 4.94363C2.98184 4.82724 2.87851 4.68446 2.8085 4.52487C2.73848 4.36528 2.7034 4.19256 2.70561 4.0183C2.70561 3.2719 3.26541 2.78929 4.13196 2.78929C4.30673 2.76599 4.48446 2.78041 4.65319 2.83159C4.82191 2.88276 4.97771 2.9695 5.11009 3.08596C5.24247 3.20242 5.34836 3.34589 5.42062 3.50672C5.49288 3.66754 5.52984 3.84199 5.52901 4.0183C5.52901 4.76469 4.96921 5.24728 4.10363 5.24728Z" fill="#F1F1F1" fill-opacity="0.7"/>
</svg>
