<svg width="23" height="20" viewBox="0 0 23 20" fill="none" xmlns="http://www.w3.org/2000/svg">
<path d="M22.093 2.19731C22.0931 2.02061 22.0464 1.84703 21.9576 1.69426C21.8688 1.54148 21.7412 1.41497 21.5876 1.3276C21.434 1.24023 21.26 1.19512 21.0833 1.19688C20.9066 1.19863 20.7335 1.24718 20.5817 1.33759C19.9961 1.68611 19.3657 1.95302 18.7079 2.13091C17.7685 1.32482 16.5704 0.88371 15.3326 0.888218C13.9746 0.889781 12.6704 1.41902 11.6953 2.36419C10.7203 3.30936 10.1507 4.59647 10.1068 5.95373C7.42975 5.52682 5.00342 4.12952 3.29055 2.0283C3.18735 1.90308 3.05555 1.80452 2.90626 1.74093C2.75698 1.67733 2.59459 1.65057 2.43279 1.6629C2.27109 1.67621 2.11506 1.72872 1.9782 1.81587C1.84134 1.90302 1.72777 2.0222 1.64731 2.1631C1.23468 2.8832 0.997684 3.69047 0.955586 4.51935C0.913488 5.34823 1.06747 6.17536 1.40503 6.93357L1.40308 6.93551C1.25136 7.02896 1.12616 7.15976 1.03944 7.31542C0.952714 7.47107 0.907376 7.64637 0.907757 7.82455C0.905921 7.97154 0.914737 8.11847 0.934138 8.26418C1.03632 9.52295 1.59419 10.7012 2.50313 11.578C2.44147 11.6955 2.40383 11.8241 2.39243 11.9562C2.38102 12.0884 2.39607 12.2215 2.43669 12.3478C2.83297 13.5825 3.67569 14.6248 4.79995 15.2709C3.65773 15.7126 2.42442 15.8666 1.20866 15.7193C0.98364 15.6911 0.755706 15.7402 0.562247 15.8585C0.368787 15.9768 0.221288 16.1574 0.143946 16.3706C0.0666031 16.5838 0.0640089 16.8169 0.136589 17.0318C0.209168 17.2466 0.352612 17.4304 0.543391 17.5531C2.63433 18.8998 5.06889 19.6158 7.55598 19.6154C10.3764 19.6472 13.1282 18.7459 15.3834 17.0519C17.6385 15.3578 19.2706 12.9659 20.0258 10.2483C20.379 9.06451 20.5593 7.83585 20.5612 6.60044C20.5612 6.53498 20.5612 6.46758 20.5602 6.40017C21.0825 5.83687 21.4871 5.17498 21.7504 4.45329C22.0136 3.73159 22.1301 2.96461 22.093 2.19731ZM18.7851 5.41051C18.6198 5.60594 18.5362 5.85749 18.5516 6.11295C18.5613 6.27801 18.5604 6.44408 18.5604 6.60044C18.5583 7.6444 18.4053 8.68258 18.1061 9.68274C17.4893 11.9951 16.1144 14.0335 14.2016 15.4717C12.2887 16.9098 9.94862 17.6644 7.55598 17.6146C6.69651 17.6149 5.84001 17.5139 5.00417 17.3137C6.07001 16.9702 7.06659 16.4407 7.94774 15.7496C8.11003 15.6218 8.2288 15.447 8.28776 15.249C8.34672 15.051 8.34298 14.8397 8.27704 14.6439C8.21111 14.4482 8.08622 14.2776 7.9195 14.1557C7.75279 14.0337 7.55242 13.9663 7.34589 13.9628C6.51439 13.9498 5.72037 13.6147 5.13113 13.0278C5.28061 12.9995 5.42911 12.9643 5.57663 12.9223C5.79273 12.8608 5.98184 12.7284 6.11351 12.5463C6.24518 12.3642 6.31175 12.1432 6.3025 11.9187C6.29325 11.6942 6.20871 11.4794 6.06251 11.3087C5.91631 11.1381 5.71695 11.0217 5.49652 10.9782C5.01386 10.8829 4.55969 10.6775 4.1693 10.3781C3.77891 10.0787 3.46283 9.69333 3.24562 9.2519C3.42642 9.27657 3.60837 9.2919 3.79076 9.29781C4.00743 9.30109 4.21952 9.23536 4.39637 9.11014C4.57323 8.98492 4.70567 8.8067 4.77455 8.60124C4.84056 8.39392 4.83716 8.17074 4.76488 7.96552C4.69259 7.7603 4.55536 7.58426 4.374 7.46407C3.93397 7.17092 3.57352 6.77321 3.32493 6.30656C3.07635 5.83991 2.94738 5.31888 2.9496 4.79015C2.9496 4.72373 2.95155 4.65729 2.95546 4.59183C5.19762 6.68293 8.10585 7.91562 11.1678 8.07272C11.3223 8.07881 11.4762 8.0497 11.6179 7.98759C11.7596 7.92548 11.8852 7.83199 11.9855 7.71418C12.0847 7.59523 12.155 7.45488 12.1907 7.30417C12.2265 7.15346 12.2268 6.99651 12.1916 6.84567C12.1343 6.60694 12.1052 6.36235 12.1046 6.11686C12.1055 5.26105 12.4459 4.44055 13.051 3.83541C13.6562 3.23026 14.4767 2.88989 15.3325 2.88899C15.7728 2.88781 16.2086 2.97793 16.6123 3.15364C17.016 3.32936 17.379 3.58687 17.6782 3.90991C17.7935 4.03404 17.9388 4.12659 18.1 4.17875C18.2613 4.23092 18.4332 4.24096 18.5994 4.20792C19.0104 4.12795 19.4154 4.02024 19.8118 3.88553C19.5414 4.43873 19.1959 4.95191 18.7851 5.41051Z" fill="#F1F1F1" fill-opacity="0.7"/>
</svg>
