<svg width="22" height="23" viewBox="0 0 22 23" fill="none" xmlns="http://www.w3.org/2000/svg">
<path d="M9.14455 19.7571C9.14452 19.6104 9.11223 19.4655 9.04996 19.3326C8.98769 19.1998 8.89697 19.0823 8.78421 18.9884C8.67146 18.8945 8.53944 18.8266 8.39751 18.7894C8.25558 18.7522 8.10721 18.7468 7.96292 18.7733C6.65332 19.0137 4.99982 19.0498 4.56018 17.8149C4.17684 16.8586 3.54185 16.0237 2.72254 15.399C2.66408 15.3672 2.60837 15.3306 2.55597 15.2895C2.48426 15.1004 2.3569 14.9374 2.19069 14.8221C2.02447 14.7068 1.82721 14.6447 1.62493 14.6438H1.62004C1.35554 14.6437 1.10176 14.7484 0.914273 14.9349C0.726781 15.1215 0.620842 15.3748 0.619643 15.6393C0.615731 16.455 1.43097 16.9777 1.7617 17.1545C2.1517 17.5464 2.46514 18.0076 2.6859 18.5145C3.05031 19.5383 4.10932 21.0917 7.15352 20.8914C7.15452 20.9266 7.15547 20.9598 7.15596 20.9901L7.16035 21.2578C7.16035 21.5231 7.26575 21.7776 7.45336 21.9652C7.64097 22.1528 7.89543 22.2582 8.16075 22.2582C8.42607 22.2582 8.68053 22.1528 8.86814 21.9652C9.05575 21.7776 9.16115 21.5231 9.16115 21.2578L9.15627 20.9393C9.15139 20.7497 9.14455 20.4752 9.14455 19.7571ZM19.8158 4.62504C19.8476 4.49999 19.8789 4.36126 19.9062 4.20495C20.068 3.09009 19.9269 1.95223 19.4978 0.910624C19.4437 0.774833 19.3605 0.652528 19.2541 0.552283C19.1477 0.452039 19.0206 0.376281 18.8819 0.330321C18.5257 0.210153 17.2108 -0.0262721 14.6961 1.58082C12.6058 1.08892 10.4299 1.08892 8.33955 1.58082C5.83512 -0.00273265 4.52697 0.212154 4.17429 0.325479C4.0321 0.369577 3.90157 0.444934 3.79229 0.546026C3.683 0.647117 3.59771 0.771383 3.54269 0.909714C3.10481 1.97132 2.9653 3.13238 3.1392 4.2675C3.16363 4.39548 3.19001 4.5137 3.21737 4.62213C2.3886 5.72602 1.94717 7.07248 1.96149 8.45277C1.95879 8.76073 1.97298 9.06861 2.00399 9.37501C2.33812 13.9794 5.33933 15.3618 7.43048 15.8366C7.38701 15.9617 7.34744 16.0955 7.31227 16.2372C7.24958 16.4946 7.29153 16.7663 7.42892 16.9928C7.5663 17.2193 7.7879 17.3821 8.04514 17.4455C8.30237 17.5089 8.57423 17.4677 8.80111 17.3309C9.028 17.1941 9.19138 16.9729 9.25543 16.7159C9.31908 16.3825 9.48224 16.0763 9.7234 15.8376C9.86921 15.7099 9.97479 15.5426 10.0273 15.3561C10.0798 15.1695 10.0769 14.9717 10.019 14.7868C9.96118 14.6018 9.85082 14.4376 9.70138 14.3143C9.55193 14.1909 9.36985 14.1136 9.17728 14.0918C5.72179 13.6971 4.22167 12.2893 3.996 9.19136C3.971 8.94599 3.95975 8.69941 3.96229 8.45278C3.94624 7.46904 4.27125 6.51008 4.88209 5.7388C4.94347 5.65839 5.00885 5.58112 5.07797 5.50726C5.20045 5.37021 5.2828 5.20206 5.31598 5.02127C5.34916 4.84048 5.33188 4.65405 5.26605 4.48244C5.19856 4.3019 5.14659 4.11592 5.11072 3.92655C5.02921 3.38805 5.05595 2.8387 5.18935 2.31066C6.05883 2.55623 6.87714 2.95596 7.60532 3.49081C7.72574 3.57102 7.86199 3.62439 8.00485 3.64732C8.14771 3.67024 8.29382 3.66218 8.43329 3.62368C10.4552 3.07496 12.5869 3.07531 14.6086 3.62468C14.7488 3.66314 14.8957 3.67074 15.0392 3.64696C15.1826 3.62318 15.3192 3.56859 15.4395 3.48694C16.1643 2.94986 16.9792 2.54656 17.8458 2.29603C17.9786 2.81139 18.0083 3.34791 17.9332 3.87478C17.897 4.0824 17.8403 4.28595 17.7642 4.48246C17.6983 4.65407 17.6811 4.8405 17.7142 5.02129C17.7474 5.20208 17.8298 5.37023 17.9522 5.50728C18.0294 5.59422 18.1066 5.68801 18.176 5.77594C18.7825 6.53416 19.102 7.4821 19.0782 8.45277C19.08 8.71249 19.0675 8.9721 19.0406 9.23042C18.8203 12.2873 17.3143 13.6961 13.8427 14.0917C13.6501 14.1137 13.468 14.1911 13.3186 14.3146C13.1691 14.4381 13.0588 14.6024 13.001 14.7875C12.9432 14.9725 12.9404 15.1704 12.993 15.357C13.0456 15.5436 13.1512 15.7109 13.2971 15.8385C13.5458 16.0837 13.7093 16.4021 13.7636 16.7471C13.8312 17.0149 13.8623 17.2906 13.8559 17.5668V19.9017C13.8461 20.5494 13.8461 21.035 13.8461 21.2577C13.8461 21.523 13.9515 21.7775 14.1391 21.9651C14.3267 22.1527 14.5812 22.2581 14.8465 22.2581C15.1118 22.2581 15.3663 22.1527 15.5539 21.9651C15.7415 21.7775 15.8469 21.523 15.8469 21.2577C15.8469 21.0408 15.8469 20.5651 15.8567 19.9173V17.5668C15.8648 17.1244 15.8127 16.683 15.7018 16.2547C15.6702 16.1141 15.6314 15.9752 15.5856 15.8386C17.1075 15.5857 18.4902 14.8011 19.4878 13.6243C20.4853 12.4475 21.0329 10.9549 21.0331 9.41215C21.0661 9.09345 21.0814 8.77317 21.079 8.45277C21.1012 7.07099 20.6561 5.7222 19.8158 4.62506L19.8158 4.62504Z" fill="#F1F1F1" fill-opacity="0.7"/>
</svg>
